# File created by Blade
# Date/Time:  Fri Jan 16 19:18:57 2015
# Frame Rate: 120.000 fps
#------------------------------------------------------
:FULLY-SPECIFIED
:DEGREES
899
root 19.995776 35.740403 -21.837747 -168.302977 -0.784817 -178.620714
Spine -24.079221 -0.006640 -2.167017
Head 13.815265 -7.570962 4.372372
LeftShoulder -17.951618 -46.507039 42.938474
LeftArm 14.483389 -30.014302 8.449310
LeftForeArm 14.193525 -0.000000 52.199275
LeftHand -0.072193 0.000000 30.086726
LeftHandThumb1 -26.253704 0.000000 33.147579
RightShoulder -12.957991 10.648620 -31.139568
RightArm 3.101522 50.078849 -15.290842
RightForeArm -33.566977 -0.000000 30.979525
RightHand -3.963707 -0.000000 -6.922479
RightHandThumb1 -24.326973 -0.000000 -32.862282
LeftUpLeg -3.310857 9.227072 0.190796
LeftLeg -7.093080 -0.000000 0.000000
LeftFoot -18.941791 26.193832 -14.922162
LeftToeBase 25.235508 -0.000000 -0.000000
RightUpLeg -4.514198 -5.917700 1.473815
RightLeg -2.779292 -0.000000 0.000000
RightFoot -20.449850 -24.308082 18.084819
RightToeBase 22.563220 -0.000000 -0.000000
900
root 19.990154 35.739222 -21.839377 -168.409858 -0.750817 -178.627491
Spine -23.980572 0.026401 -2.207258
Head 13.743926 -7.517158 4.333563
LeftShoulder -17.689418 -46.393775 42.541386
LeftArm 14.334324 -29.452137 8.581491
LeftForeArm 14.767628 -0.000000 50.447102
LeftHand 0.024764 -0.000000 30.581960
LeftHandThumb1 -26.253704 0.000000 33.147579
RightShoulder -12.808047 10.202808 -30.564041
RightArm 2.923936 49.802351 -15.366859
RightForeArm -33.238068 -0.000000 29.866849
RightHand -3.828872 -0.000000 -7.949031
RightHandThumb1 -24.326973 -0.000000 -32.862282
LeftUpLeg -3.199051 9.233509 0.189507
LeftLeg -7.086090 -0.000000 0.000000
LeftFoot -18.961282 26.176841 -14.927941
LeftToeBase 25.127132 -0.000000 -0.000000
RightUpLeg -4.416889 -5.885052 1.439619
RightLeg -2.760458 -0.000000 0.000000
RightFoot -20.457520 -24.315533 18.053438
RightToeBase 22.638828 -0.000000 -0.000000
901
root 19.984417 35.738458 -21.840107 -168.519965 -0.718385 -178.630491
Spine -23.877473 0.064067 -2.243694
Head 13.653589 -7.497472 4.289555
LeftShoulder -17.431323 -46.280032 42.160873
LeftArm 14.151523 -28.851927 8.720778
LeftForeArm 15.416236 -0.000000 48.705951
LeftHand 0.161848 -0.000000 30.849969
LeftHandThumb1 -26.253704 0.000000 33.147579
RightShoulder -12.641250 9.996780 -30.120529
RightArm 2.750432 49.442080 -15.232794
RightForeArm -33.179346 -0.000000 29.028286
RightHand -3.887471 0.000000 -8.480306
RightHandThumb1 -24.326973 -0.000000 -32.862282
LeftUpLeg -3.091089 9.244885 0.191240
LeftLeg -7.064377 -0.000000 0.000000
LeftFoot -18.953419 26.234344 -14.891494
LeftToeBase 25.137539 -0.000000 -0.000000
RightUpLeg -4.322166 -5.867138 1.411808
RightLeg -2.732142 -0.000000 0.000000
RightFoot -20.482060 -24.345855 18.055220
RightToeBase 22.534294 -0.000000 -0.000000
902
root 19.978745 35.737391 -21.841811 -168.639149 -0.697339 -178.630241
Spine -23.761611 0.111570 -2.276741
Head 13.553371 -7.411114 4.291782
LeftShoulder -17.187503 -46.241076 41.812551
LeftArm 13.958956 -28.173401 8.841738
LeftForeArm 15.893610 -0.000000 47.021647
LeftHand 0.403927 0.000000 30.900092
LeftHandThumb1 -26.253704 0.000000 33.147579
RightShoulder -12.505437 9.880572 -29.771271
RightArm 2.627054 49.003225 -14.934211
RightForeArm -33.188034 -0.000000 28.282424
RightHand -4.038007 -0.000000 -9.268292
RightHandThumb1 -24.326973 -0.000000 -32.862282
LeftUpLeg -2.968035 9.228753 0.201198
LeftLeg -7.057331 -0.000000 0.000000
LeftFoot -18.978366 26.271612 -14.884965
LeftToeBase 25.158321 -0.000000 -0.000000
RightUpLeg -4.222286 -5.891769 1.391269
RightLeg -2.693053 -0.000000 0.000000
RightFoot -20.482208 -24.272226 18.027521
RightToeBase 22.616949 -0.000000 -0.000000
903
root 19.971313 35.736402 -21.842700 -168.746328 -0.668800 -178.639023
Spine -23.647330 0.160320 -2.308593
Head 13.461552 -7.358435 4.243178
LeftShoulder -16.968077 -46.092828 41.406255
LeftArm 13.851322 -27.538682 8.979666
LeftForeArm 16.204622 0.000000 45.229926
LeftHand 0.771413 0.000000 31.117324
LeftHandThumb1 -26.253704 0.000000 33.147579
RightShoulder -12.408717 9.688580 -29.430825
RightArm 2.550751 48.820791 -14.520429
RightForeArm -33.196609 -0.000000 27.653762
RightHand -4.238372 0.000000 -9.808199
RightHandThumb1 -24.326973 -0.000000 -32.862282
LeftUpLeg -2.862189 9.242954 0.195179
LeftLeg -7.040014 -0.000000 0.000000
LeftFoot -19.002405 26.281220 -14.878541
LeftToeBase 25.156676 -0.000000 -0.000000
RightUpLeg -4.129694 -5.889323 1.356646
RightLeg -2.665322 -0.000000 0.000000
RightFoot -20.493381 -24.243745 18.033750
RightToeBase 22.607565 -0.000000 -0.000000
904
root 19.964631 35.736003 -21.842946 -168.866175 -0.636560 -178.643231
Spine -23.510697 0.202976 -2.329296
Head 13.364118 -7.336864 4.175232
LeftShoulder -16.796524 -45.962108 41.010178
LeftArm 13.787383 -26.839566 9.116531
LeftForeArm 16.393382 -0.000000 43.435248
LeftHand 1.072652 -0.000000 31.304354
LeftHandThumb1 -26.253704 0.000000 33.147579
RightShoulder -12.321142 9.565643 -29.131798
RightArm 2.473556 48.633128 -14.025067
RightForeArm -33.179890 0.000000 27.187376
RightHand -4.449105 -0.000000 -10.144723
RightHandThumb1 -24.326973 -0.000000 -32.862282
LeftUpLeg -2.741047 9.243852 0.197958
LeftLeg -7.027328 -0.000000 0.000000
LeftFoot -19.066627 26.299745 -14.916725
LeftToeBase 25.317339 -0.000000 -0.000000
RightUpLeg -4.018693 -5.855427 1.322949
RightLeg -2.652187 -0.000000 0.000000
RightFoot -20.501286 -24.275393 17.984936
RightToeBase 22.660357 -0.000000 -0.000000
905
root 19.956706 35.735243 -21.842318 -168.996603 -0.599441 -178.645781
Spine -23.359797 0.268696 -2.348821
Head 13.269782 -7.302326 4.129861
LeftShoulder -16.587023 -45.846157 40.619010
LeftArm 13.665632 -26.037316 9.270867
LeftForeArm 16.451469 -0.000000 41.655401
LeftHand 1.422494 -0.000000 31.881135
LeftHandThumb1 -26.253704 0.000000 33.147579
RightShoulder -12.223280 9.301179 -28.709261
RightArm 2.378525 48.505616 -13.721402
RightForeArm -33.379282 0.000000 26.527385
RightHand -4.520441 -0.000000 -10.830042
RightHandThumb1 -24.326973 -0.000000 -32.862282
LeftUpLeg -2.612579 9.255693 0.201813
LeftLeg -7.007865 -0.000000 0.000000
LeftFoot -19.078857 26.266908 -14.895846
LeftToeBase 25.168905 -0.000000 -0.000000
RightUpLeg -3.911065 -5.827442 1.289478
RightLeg -2.615207 -0.000000 0.000000
RightFoot -20.515280 -24.275876 17.965496
RightToeBase 22.699933 -0.000000 -0.000000
906
root 19.948268 35.734871 -21.841056 -169.119205 -0.557670 -178.651627
Spine -23.218572 0.361717 -2.372283
Head 13.172788 -7.245032 4.091825
LeftShoulder -16.373278 -45.684712 40.205291
LeftArm 13.527981 -25.251847 9.386143
LeftForeArm 16.205965 -0.000000 39.986340
LeftHand 1.780552 -0.000000 31.885439
LeftHandThumb1 -26.253704 0.000000 33.147579
RightShoulder -12.145414 9.090997 -28.318107
RightArm 2.307397 48.357622 -13.378965
RightForeArm -33.406831 0.000000 25.937682
RightHand -4.617376 -0.000000 -11.419597
RightHandThumb1 -24.326973 -0.000000 -32.862282
LeftUpLeg -2.494553 9.276743 0.196557
LeftLeg -6.984912 -0.000000 0.000000
LeftFoot -19.110786 26.324963 -14.899660
LeftToeBase 25.278778 -0.000000 -0.000000
RightUpLeg -3.825989 -5.803578 1.254271
RightLeg -2.556153 -0.000000 0.000000
RightFoot -20.538618 -24.273231 17.978042
RightToeBase 22.640544 -0.000000 -0.000000
907
root 19.941307 35.734945 -21.838700 -169.240760 -0.543054 -178.659165
Spine -23.077524 0.435838 -2.402138
Head 13.105986 -7.239283 4.043250
LeftShoulder -16.135841 -45.532442 39.786720
LeftArm 13.382030 -24.428116 9.500964
LeftForeArm 16.154508 0.000000 38.321475
LeftHand 2.208645 0.000000 32.031366
LeftHandThumb1 -26.253704 0.000000 33.147579
RightShoulder -12.056775 8.500238 -27.671496
RightArm 2.186139 48.424555 -13.388277
RightForeArm -33.308057 0.000000 25.100631
RightHand -4.584746 -0.000000 -12.151989
RightHandThumb1 -24.326973 -0.000000 -32.862282
LeftUpLeg -2.389926 9.272856 0.196404
LeftLeg -6.953764 -0.000000 0.000000
LeftFoot -19.119219 26.299432 -14.892215
LeftToeBase 25.146292 -0.000000 -0.000000
RightUpLeg -3.734150 -5.789644 1.223879
RightLeg -2.514787 -0.000000 0.000000
RightFoot -20.611059 -24.269771 18.059221
RightToeBase 22.730258 -0.000000 -0.000000
908
root 19.934034 35.734374 -21.835777 -169.362862 -0.514655 -178.662528
Spine -22.921461 0.525841 -2.421796
Head 13.003854 -7.248354 3.989956
LeftShoulder -15.896149 -45.404731 39.401812
LeftArm 13.171605 -23.512088 9.622963
LeftForeArm 15.908208 -0.000000 36.731588
LeftHand 2.484477 -0.000000 32.147928
LeftHandThumb1 -26.253704 0.000000 33.147579
RightShoulder -11.985649 8.131195 -27.118639
RightArm 2.119292 48.398792 -13.282368
RightForeArm -33.404235 -0.000000 24.360077
RightHand -4.574918 -0.000000 -12.066275
RightHandThumb1 -24.326973 -0.000000 -32.862282
LeftUpLeg -2.285073 9.297949 0.194438
LeftLeg -6.917641 -0.000000 0.000000
LeftFoot -19.119221 26.336861 -14.861688
LeftToeBase 25.178537 -0.000000 -0.000000
RightUpLeg -3.636742 -5.752126 1.190649
RightLeg -2.474353 -0.000000 0.000000
RightFoot -20.582201 -24.294600 17.953660
RightToeBase 22.719876 -0.000000 -0.000000
